<?xml version="1.0" encoding="UTF-8"?>
<svg xmlns="http://www.w3.org/2000/svg" xmlns:xlink="http://www.w3.org/1999/xlink" width="37.5pt" height="37.499999pt" viewBox="0 0 37.5 37.499999" version="1.2">
<defs>
<clipPath id="clip1">
  <path d="M 0 0 L 37.007812 0 L 37.007812 37.007812 L 0 37.007812 Z M 0 0 "/>
</clipPath>
</defs>
<g id="surface1">
<g clip-path="url(#clip1)" clip-rule="nonzero">
<path style=" stroke:none;fill-rule:nonzero;fill:rgb(95.689392%,26.269531%,21.179199%);fill-opacity:1;" d="M 18.75 0 L 22.589844 4.285156 L 28.125 2.5 L 29.375 8.125 L 35 9.375 L 33.214844 14.910156 L 37.5 18.75 L 33.214844 22.589844 L 35 28.125 L 29.375 29.375 L 28.125 35 L 22.589844 33.214844 L 18.75 37.5 L 14.910156 33.214844 L 9.375 35 L 8.125 29.375 L 2.5 28.125 L 4.285156 22.589844 L 0 18.75 L 4.285156 14.910156 L 2.5 9.375 L 8.125 8.125 L 9.375 2.5 L 14.910156 4.285156 Z M 18.75 0 "/>
</g>
<path style=" stroke:none;fill-rule:nonzero;fill:rgb(100%,100%,100%);fill-opacity:1;" d="M 17.144531 20.894531 L 15.179688 20.894531 L 14.820312 22.320312 L 13.304688 22.320312 L 15.535156 15.179688 L 16.875 15.179688 L 19.105469 22.320312 L 17.589844 22.320312 Z M 15.445312 19.644531 L 16.785156 19.644531 L 16.160156 17.144531 Z M 15.445312 19.644531 "/>
<path style=" stroke:none;fill-rule:nonzero;fill:rgb(100%,100%,100%);fill-opacity:1;" d="M 21.605469 21.070312 L 24.105469 21.070312 L 24.105469 22.320312 L 20.179688 22.320312 L 20.179688 15.179688 L 21.605469 15.179688 Z M 21.605469 21.070312 "/>
<path style=" stroke:none;fill-rule:nonzero;fill:rgb(100%,100%,100%);fill-opacity:1;" d="M 29.105469 19.195312 L 26.875 19.195312 L 26.875 21.070312 L 29.554688 21.070312 L 29.554688 22.320312 L 25.445312 22.320312 L 25.445312 15.179688 L 29.554688 15.179688 L 29.554688 16.339844 L 26.875 16.339844 L 26.875 18.035156 L 29.105469 18.035156 Z M 29.105469 19.195312 "/>
<path style=" stroke:none;fill-rule:nonzero;fill:rgb(100%,100%,100%);fill-opacity:1;" d="M 10.804688 20.445312 C 10.804688 18.929688 7.769531 19.464844 7.769531 17.054688 C 7.769531 16.339844 8.214844 15.089844 10 15.089844 C 11.964844 15.089844 12.230469 16.785156 12.230469 17.320312 L 10.804688 17.320312 C 10.804688 16.785156 10.535156 16.339844 10 16.339844 C 9.195312 16.339844 9.195312 17.054688 9.195312 17.144531 C 9.195312 18.480469 12.230469 17.945312 12.230469 20.445312 C 12.230469 21.519531 11.519531 22.410156 10 22.410156 C 8.75 22.410156 7.5 21.605469 7.5 20.089844 L 8.929688 20.089844 C 8.929688 20.535156 9.019531 21.25 9.910156 21.25 C 10.355469 21.25 10.804688 21.160156 10.804688 20.445312 Z M 10.804688 20.445312 "/>
</g>
</svg>
