<?xml version="1.0" encoding="UTF-8"?>
<svg xmlns="http://www.w3.org/2000/svg" xmlns:xlink="http://www.w3.org/1999/xlink" width="37.5pt" height="37.499999pt" viewBox="0 0 37.5 37.499999" version="1.2">
<defs>
<clipPath id="clip1">
  <path d="M 2 6 L 19 6 L 19 37.007812 L 2 37.007812 Z M 2 6 "/>
</clipPath>
<clipPath id="clip2">
  <path d="M 12 5 L 35.742188 5 L 35.742188 37 L 12 37 Z M 12 5 "/>
</clipPath>
</defs>
<g id="surface1">
<path style=" stroke:none;fill-rule:nonzero;fill:rgb(95.689392%,26.269531%,21.179199%);fill-opacity:1;" d="M 13.691406 24.546875 C 13.433594 24.375 13.058594 24.429688 12.886719 24.6875 L 8.289062 31.398438 C 8.117188 31.652344 8.171875 32.023438 8.433594 32.195312 C 8.519531 32.253906 8.632812 32.28125 8.746094 32.28125 C 8.921875 32.28125 9.121094 32.195312 9.238281 32.023438 L 13.835938 25.316406 C 14.039062 25.058594 13.953125 24.714844 13.691406 24.546875 Z M 13.691406 24.546875 "/>
<path style=" stroke:none;fill-rule:nonzero;fill:rgb(95.689392%,26.269531%,21.179199%);fill-opacity:1;" d="M 9.0625 23.515625 C 8.117188 23.515625 7.339844 24.289062 7.339844 25.230469 C 7.339844 26.171875 8.117188 26.941406 9.0625 26.941406 C 10.011719 26.941406 10.789062 26.171875 10.789062 25.230469 C 10.789062 24.289062 10.011719 23.515625 9.0625 23.515625 Z M 9.0625 25.800781 C 8.746094 25.800781 8.488281 25.542969 8.488281 25.230469 C 8.488281 24.917969 8.746094 24.660156 9.0625 24.660156 C 9.378906 24.660156 9.640625 24.917969 9.640625 25.230469 C 9.640625 25.542969 9.378906 25.800781 9.0625 25.800781 Z M 9.0625 25.800781 "/>
<path style=" stroke:none;fill-rule:nonzero;fill:rgb(95.689392%,26.269531%,21.179199%);fill-opacity:1;" d="M 12.515625 30.367188 C 11.566406 30.367188 10.789062 31.140625 10.789062 32.082031 C 10.789062 33.023438 11.566406 33.792969 12.515625 33.792969 C 13.460938 33.792969 14.238281 33.023438 14.238281 32.082031 C 14.238281 31.140625 13.460938 30.367188 12.515625 30.367188 Z M 12.515625 32.652344 C 12.199219 32.652344 11.9375 32.394531 11.9375 32.082031 C 11.9375 31.769531 12.199219 31.511719 12.515625 31.511719 C 12.832031 31.511719 13.089844 31.769531 13.089844 32.082031 C 13.089844 32.394531 12.832031 32.652344 12.515625 32.652344 Z M 12.515625 32.652344 "/>
<g clip-path="url(#clip1)" clip-rule="nonzero">
<path style=" stroke:none;fill-rule:nonzero;fill:rgb(95.689392%,26.269531%,21.179199%);fill-opacity:1;" d="M 16.625 35.59375 C 16.539062 35.90625 16.222656 36.136719 15.878906 36.078125 L 3.746094 33.222656 C 3.429688 33.136719 3.257812 32.796875 3.316406 32.511719 L 8.316406 12.382812 C 8.488281 11.726562 9.152344 10.8125 9.695312 10.472656 L 13.550781 8.101562 L 14.210938 6.359375 L 9.09375 9.472656 C 8.257812 9.984375 7.425781 11.15625 7.195312 12.097656 L 2.222656 32.195312 C 1.992188 33.136719 2.566406 34.082031 3.488281 34.308594 C 3.488281 34.308594 15.589844 37.164062 15.617188 37.164062 C 16.539062 37.390625 17.515625 36.765625 17.746094 35.851562 L 18.578125 32.625 L 17.832031 30.910156 C 17.804688 30.910156 16.625 35.59375 16.625 35.59375 Z M 16.625 35.59375 "/>
</g>
<g clip-path="url(#clip2)" clip-rule="nonzero">
<path style=" stroke:none;fill-rule:nonzero;fill:rgb(95.689392%,26.269531%,21.179199%);fill-opacity:1;" d="M 35.367188 28.941406 L 27.261719 10.183594 C 26.886719 9.300781 25.851562 8.328125 24.960938 8.015625 L 21.050781 6.589844 C 20.996094 6.988281 20.9375 7.359375 20.851562 7.730469 L 24.589844 9.101562 C 25.191406 9.328125 25.96875 10.070312 26.226562 10.671875 L 34.304688 29.425781 C 34.449219 29.742188 34.304688 30.140625 34.015625 30.253906 C 34.015625 30.253906 22.921875 35.449219 22.890625 35.480469 C 22.605469 35.621094 22.316406 35.480469 22.203125 35.195312 L 13.894531 16.238281 C 13.636719 15.636719 13.605469 14.496094 13.835938 13.867188 L 16.511719 6.789062 C 16.625 6.503906 16.96875 6.304688 17.257812 6.417969 L 17.601562 6.558594 C 17.660156 6.160156 17.6875 5.761719 17.6875 5.359375 L 17.632812 5.332031 C 17.429688 5.273438 17.230469 5.21875 17.054688 5.21875 C 16.335938 5.21875 15.675781 5.644531 15.417969 6.359375 L 12.742188 13.441406 C 12.398438 14.324219 12.457031 15.78125 12.832031 16.664062 C 12.832031 16.664062 21.136719 35.59375 21.136719 35.621094 C 21.511719 36.476562 22.546875 36.878906 23.378906 36.476562 L 34.507812 31.253906 C 35.367188 30.882812 35.742188 29.828125 35.367188 28.941406 Z M 35.367188 28.941406 "/>
</g>
<path style=" stroke:none;fill-rule:nonzero;fill:rgb(95.689392%,26.269531%,21.179199%);fill-opacity:1;" d="M 14.382812 4.761719 C 14.613281 4.960938 14.984375 4.933594 15.1875 4.703125 C 15.390625 4.476562 15.359375 4.105469 15.128906 3.90625 C 14.871094 3.675781 14.757812 3.417969 14.785156 3.105469 C 14.8125 2.675781 15.101562 2.25 15.53125 2.019531 C 16.566406 1.394531 17.746094 2.535156 18.207031 3.21875 C 19.070312 4.476562 18.894531 6.386719 18.492188 7.671875 C 18.4375 7.816406 18.40625 7.957031 18.351562 8.128906 C 18.320312 8.128906 18.292969 8.128906 18.261719 8.128906 C 17.316406 8.128906 16.539062 8.902344 16.539062 9.84375 C 16.539062 10.785156 17.316406 11.554688 18.261719 11.554688 C 19.210938 11.554688 19.988281 10.785156 19.988281 9.84375 C 19.988281 9.328125 19.757812 8.902344 19.414062 8.585938 C 19.472656 8.414062 19.558594 8.214844 19.613281 8.042969 C 20.101562 6.472656 20.246094 4.21875 19.183594 2.621094 C 18.234375 1.191406 16.511719 0.109375 14.957031 1.023438 C 14.238281 1.449219 13.75 2.191406 13.664062 2.992188 C 13.605469 3.675781 13.863281 4.304688 14.382812 4.761719 Z M 18.261719 10.386719 C 17.945312 10.386719 17.6875 10.128906 17.6875 9.8125 C 17.6875 9.5 17.945312 9.242188 18.261719 9.242188 C 18.578125 9.242188 18.839844 9.5 18.839844 9.8125 C 18.839844 10.128906 18.578125 10.386719 18.261719 10.386719 Z M 18.261719 10.386719 "/>
</g>
</svg>
